<svg id="visual" viewBox="0 0 960 540" width="960" height="540" xmlns="http://www.w3.org/2000/svg" xmlns:xlink="http://www.w3.org/1999/xlink" version="1.1"><rect x="0" y="0" width="960" height="540" fill="#D8E2DC"></rect><path d="M0 309L22.8 304.3C45.7 299.7 91.3 290.3 137 291.7C182.7 293 228.3 305 274 320.8C319.7 336.7 365.3 356.3 411.2 359.5C457 362.7 503 349.3 548.8 332.7C594.7 316 640.3 296 686 305.5C731.7 315 777.3 354 823 357.7C868.7 361.3 914.3 329.7 937.2 313.8L960 298L960 541L937.2 541C914.3 541 868.7 541 823 541C777.3 541 731.7 541 686 541C640.3 541 594.7 541 548.8 541C503 541 457 541 411.2 541C365.3 541 319.7 541 274 541C228.3 541 182.7 541 137 541C91.3 541 45.7 541 22.8 541L0 541Z" fill="#FEC5BB" stroke-linecap="round" stroke-linejoin="miter"></path></svg>